<?xml version="1.0" encoding="UTF-8"?>
<!-- Generator: Adobe Illustrator 21.0.0, SVG Export Plug-In . SVG Version: 6.00 Build 0)  -->
<svg version="1.1" id="Layer_1" xmlns="http://www.w3.org/2000/svg" xmlns:xlink="http://www.w3.org/1999/xlink" x="0px" y="0px" viewBox="0 0 750.8 327.4" style="enable-background:new 0 0 750.8 327.4;" xml:space="preserve">
<style type="text/css">
	.st0{fill:#6AC2FF;}
	.st1{fill:#6D6E71;}
</style>
<g>
	<g>
		<path class="st0" d="M237.5,38.6C213.1,13.8,180.2,0.4,145.2,0C73.7,0.4,15.1,58.6,15.1,130.5c0,29.3,9.8,57.7,28,80.8L2.5,248    c-5.1,4.6-1.8,13,5,13h137.7c71.9,0,130.1-58.1,130.5-130.1C275.7,96.3,262.4,63.5,237.5,38.6z M145.2,241h-0.4L40,240.6l31.1-28    l-6.7-7.5c-18.6-20.4-29.3-47.1-29.3-75c0-60.4,49.7-109.6,110.1-109.6c29.7,0,57.3,11.5,78.1,32.4c20.9,20.9,32.4,48.8,32,78.1    C255.7,191.8,206,241,145.2,241z"/>
	</g>
	<g id="XMLID_17_">
		<circle id="XMLID_16_" class="st0" cx="106.6" cy="133.4" r="10.6"/>
		<circle id="XMLID_21_" class="st0" cx="141.3" cy="133.4" r="10.6"/>
		<circle id="XMLID_23_" class="st0" cx="176" cy="133.4" r="10.6"/>
	</g>
	<g>
		<path class="st0" d="M401.8,88.4c7.7,4.9,13.8,11.5,18.4,19.9c4.5,8.4,6.8,17.6,6.8,27.8c0,10.1-2.3,19.4-6.8,28    c-4.5,8.6-10.7,15.3-18.4,20.3c-7.7,5-16.1,7.5-25.2,7.5h-48.3v56.8c0,3.4-1.1,6.3-3.3,8.7c-2.2,2.4-5.1,3.6-8.5,3.6    c-3.6,0-6.5-1.2-8.6-3.5c-2.1-2.3-3.2-5.3-3.2-8.9V93.4c0-3.4,1.2-6.3,3.6-8.7c2.4-2.4,5.3-3.6,8.7-3.6h59.6    C385.7,81.1,394.1,83.5,401.8,88.4z M389.5,164c3.9-3,7.1-7,9.4-12c2.3-5,3.5-10.3,3.5-15.9c0-8.7-2.5-16.1-7.6-22.2    c-5.1-6.1-11.1-9.1-18.1-9.1h-48.3v63.7h48.3C381.2,168.5,385.5,167,389.5,164z"/>
		<path class="st0" d="M569.5,241c2.3,2.4,3.5,5.2,3.5,8.5c0,3.4-1.2,6.2-3.5,8.4c-2.3,2.1-5.3,3.2-8.9,3.2h-89.4    c-3.4,0-6.3-1.2-8.7-3.6c-2.4-2.4-3.6-5.3-3.6-8.7V93.4c0-3.4,1.2-6.3,3.6-8.7c2.4-2.4,5.3-3.6,8.7-3.6h89.4    c3.6,0,6.6,1.1,8.9,3.3c2.3,2.2,3.5,5.1,3.5,8.7c0,3.4-1.2,6.2-3.5,8.4c-2.3,2.1-5.3,3.2-8.9,3.2h-76.3v52.4h64.8    c3.6,0,6.6,1.1,8.9,3.3c2.3,2.2,3.5,5.1,3.5,8.5c0,3.6-1.2,6.4-3.5,8.5c-2.3,2.1-5.3,3.1-8.9,3.1h-64.8v56.8h76.3    C564.2,237.4,567.2,238.6,569.5,241z"/>
		<path class="st0" d="M747.7,84.3c2.1,2.1,3.1,4.8,3.1,8.1v156c0,3.6-1.2,6.6-3.5,9c-2.3,2.4-5.3,3.6-8.9,3.6    c-1.9,0-3.7-0.3-5.5-0.9c-1.8-0.6-3.2-1.5-4.2-2.7l-101-131.6v123.9c0,3.3-1.1,6-3.2,8.1c-2.1,2.1-4.8,3.2-8.1,3.2    c-3.3,0-5.9-1.1-8-3.2c-2.1-2.1-3.1-4.8-3.1-8.1V93.4c0-3.6,1.2-6.6,3.5-8.9c2.3-2.3,5.2-3.5,8.6-3.5c2.1,0,4,0.4,5.9,1.2    c1.9,0.8,3.3,1.8,4.4,3.2l100.8,131.9V92.4c0-3.3,1.1-6,3.2-8.1c2.1-2.1,4.8-3.2,8.1-3.2C743,81.1,745.7,82.2,747.7,84.3z"/>
	</g>
	<g>
		<g>
			<path class="st1" d="M483.8,313.5c0-1.4-0.6-2.5-1.8-3.3c-1.2-0.8-2.6-1.6-4.4-2.2c-1.7-0.7-3.6-1.4-5.7-2     c-2-0.7-3.9-1.6-5.7-2.7c-1.7-1.1-3.2-2.6-4.4-4.3c-1.2-1.7-1.8-4-1.8-6.7c0-2.4,0.4-4.4,1.3-6.2c0.8-1.8,2-3.3,3.5-4.4     c1.5-1.2,3.3-2,5.5-2.6c2.1-0.6,4.5-0.9,7.1-0.9c3,0,5.8,0.3,8.5,0.8c2.7,0.5,4.9,1.3,6.6,2.2l-3.2,8.4c-0.5-0.3-1.2-0.6-2.1-1     c-0.8-0.3-1.8-0.6-2.9-0.9c-1.1-0.2-2.2-0.5-3.5-0.6c-1.2-0.2-2.5-0.2-3.7-0.2c-2.3,0-4,0.4-5.3,1.2c-1.2,0.8-1.9,1.9-1.9,3.3     c0,1.4,0.6,2.5,1.8,3.4c1.2,0.8,2.6,1.6,4.4,2.3c1.7,0.7,3.6,1.4,5.7,2.1c2,0.7,3.9,1.6,5.7,2.7c1.7,1.1,3.2,2.5,4.4,4.2     c1.2,1.7,1.8,3.8,1.8,6.4c0,2.6-0.5,4.9-1.4,6.8c-0.9,1.9-2.2,3.5-3.8,4.7c-1.7,1.2-3.6,2.2-5.9,2.7c-2.3,0.6-4.8,0.9-7.6,0.9     c-1.9,0-3.6-0.1-5.3-0.3c-1.7-0.2-3.2-0.5-4.6-0.7c-1.4-0.3-2.6-0.6-3.7-0.9c-1.1-0.3-1.9-0.7-2.5-1l3.3-8.5     c0.5,0.3,1.2,0.6,2.1,0.9c0.9,0.3,1.9,0.6,3,0.9c1.1,0.3,2.2,0.5,3.5,0.7c1.2,0.2,2.5,0.3,3.8,0.3c3,0,5.3-0.4,6.8-1.3     C483,316.6,483.8,315.3,483.8,313.5z"/>
			<path class="st1" d="M510,279.5c2-0.4,4.3-0.6,6.8-0.8c2.5-0.2,5-0.3,7.5-0.3c2.5,0,5.1,0.2,7.7,0.6c2.6,0.4,4.9,1.2,7,2.3     c2.1,1.2,3.7,2.8,5.1,4.8c1.3,2.1,2,4.8,2,8.2c0,3-0.6,5.5-1.7,7.6c-1.1,2.1-2.6,3.8-4.5,5.1c-1.9,1.3-4,2.3-6.4,2.9     c-2.4,0.6-4.9,0.9-7.4,0.9c-0.2,0-0.6,0-1.2,0s-1.1,0-1.7,0c-0.6,0-1.2-0.1-1.7-0.1c-0.5,0-0.9-0.1-1.2-0.1v16h-10V279.5z      M524.9,287.1c-0.9,0-1.9,0-2.7,0.1c-0.9,0-1.6,0.1-2.1,0.3v14.1c0.2,0,0.5,0.1,0.9,0.1c0.4,0,0.8,0.1,1.3,0.1     c0.5,0,0.9,0,1.3,0.1c0.4,0,0.7,0,0.9,0c1.3,0,2.6-0.1,3.9-0.3c1.3-0.2,2.5-0.6,3.5-1.2c1-0.6,1.8-1.4,2.5-2.4     c0.6-1,0.9-2.4,0.9-4.1c0-1.4-0.3-2.6-0.9-3.5c-0.6-0.9-1.4-1.6-2.3-2.1c-1-0.5-2.1-0.8-3.3-1     C527.4,287.2,526.2,287.1,524.9,287.1z"/>
			<path class="st1" d="M561.5,279h30.6v8.8h-20.5v10.3h18.6v8.8h-18.6v10.7h20.9v8.8h-30.9V279z"/>
			<path class="st1" d="M634.9,316.4h-16l-3.9,10.1h-10l18.6-47.8h7.4l18.7,47.8H639L634.9,316.4z M621.7,308.4h10.9l-3.7-9.9     l-1.6-7.5h-0.3l-1.6,7.6L621.7,308.4z"/>
			<path class="st1" d="M676.2,306.4h-2.6v20.1h-10V279h10v20.9l2.4-1l14.2-19.9h11.5l-15.1,19.9l-3.9,2.6l4.1,2.7l17.2,22.3h-12.4     L676.2,306.4z"/>
			<path class="st1" d="M740.8,313.5c0-1.4-0.6-2.5-1.8-3.3c-1.2-0.8-2.6-1.6-4.4-2.2c-1.7-0.7-3.6-1.4-5.7-2     c-2-0.7-3.9-1.6-5.7-2.7c-1.7-1.1-3.2-2.6-4.4-4.3c-1.2-1.7-1.8-4-1.8-6.7c0-2.4,0.4-4.4,1.3-6.2c0.8-1.8,2-3.3,3.5-4.4     c1.5-1.2,3.3-2,5.5-2.6c2.1-0.6,4.5-0.9,7.1-0.9c3,0,5.8,0.3,8.5,0.8c2.7,0.5,4.9,1.3,6.6,2.2l-3.2,8.4c-0.5-0.3-1.2-0.6-2.1-1     c-0.8-0.3-1.8-0.6-2.9-0.9c-1.1-0.2-2.2-0.5-3.5-0.6c-1.2-0.2-2.5-0.2-3.7-0.2c-2.3,0-4,0.4-5.3,1.2c-1.2,0.8-1.9,1.9-1.9,3.3     c0,1.4,0.6,2.5,1.8,3.4c1.2,0.8,2.6,1.6,4.4,2.3c1.7,0.7,3.6,1.4,5.7,2.1c2,0.7,3.9,1.6,5.7,2.7c1.7,1.1,3.2,2.5,4.4,4.2     c1.2,1.7,1.8,3.8,1.8,6.4c0,2.6-0.5,4.9-1.4,6.8c-0.9,1.9-2.2,3.5-3.8,4.7c-1.7,1.2-3.6,2.2-5.9,2.7c-2.3,0.6-4.8,0.9-7.6,0.9     c-1.9,0-3.6-0.1-5.3-0.3c-1.7-0.2-3.2-0.5-4.6-0.7c-1.4-0.3-2.6-0.6-3.7-0.9c-1.1-0.3-1.9-0.7-2.5-1l3.3-8.5     c0.5,0.3,1.2,0.6,2.1,0.9c0.9,0.3,1.9,0.6,3,0.9c1.1,0.3,2.2,0.5,3.5,0.7c1.2,0.2,2.5,0.3,3.8,0.3c3,0,5.3-0.4,6.8-1.3     C740,316.6,740.8,315.3,740.8,313.5z"/>
		</g>
	</g>
</g>
</svg>